<svg xmlns="http://www.w3.org/2000/svg" width="20.608" height="24.424" viewBox="0 0 20.608 24.424"><path d="M8.114,1.928c-2.529,0-4.58,2.392-4.58,5.343a5.242,5.242,0,0,0,3.523,5.2L6.3,24.829a1.422,1.422,0,0,0,1.433,1.524H8.5a1.422,1.422,0,0,0,1.433-1.524L9.171,12.47a5.242,5.242,0,0,0,3.523-5.2C12.694,4.32,10.644,1.928,8.114,1.928Zm15.392,0L22.235,9.561H21.28l-.636-7.633h-.636l-.636,7.633h-.954L17.146,1.928H16.51V11.85a.763.763,0,0,0,.763.763h1.988l-.749,12.215a1.422,1.422,0,0,0,1.433,1.524h.763a1.422,1.422,0,0,0,1.433-1.524l-.749-12.215h1.988a.763.763,0,0,0,.763-.763V1.928Z" transform="translate(-3.535 -1.928)"/></svg>